<svg version="1.1"
     width="100" height="100"
     xmlns="http://www.w3.org/2000/svg">

    <g>
        <rect x="0" y="0" width="10" height="10" fill="SteelBlue" />
        <rect x="10" y="0" width="10" height="10" fill="RoyalBlue" />
        <rect x="20" y="0" width="10" height="10" fill="RoyalBlue" />
        <rect x="30" y="0" width="10" height="10" fill="SteelBlue" />
        <rect x="40" y="0" width="10" height="10" fill="SkyBlue" />

        <rect x="0" y="10" width="10" height="10" fill="SteelBlue" />
        <rect x="10" y="10" width="10" height="10" fill="SkyBlue" />
        <rect x="20" y="10" width="10" height="10" fill="SteelBlue" />
        <rect x="30" y="10" width="10" height="10" fill="RoyalBlue" />
        <rect x="40" y="10" width="10" height="10" fill="SteelBlue" />

        <rect x="0" y="20" width="10" height="10" fill="RoyalBlue" />
        <rect x="10" y="20" width="10" height="10" fill="SteelBlue" />
        <rect x="20" y="20" width="10" height="10" fill="SteelBlue" />
        <rect x="30" y="20" width="10" height="10" fill="SkyBlue" />
        <rect x="40" y="20" width="10" height="10" fill="SteelBlue" />

        <rect x="0" y="30" width="10" height="10" fill="RoyalBlue" />
        <rect x="10" y="30" width="10" height="10" fill="RoyalBlue" />
        <rect x="20" y="30" width="10" height="10" fill="SkyBlue" />
        <rect x="30" y="30" width="10" height="10" fill="SteelBlue" />
        <rect x="40" y="30" width="10" height="10" fill="SkyBlue" />

        <rect x="0" y="40" width="10" height="10" fill="SteelBlue" />
        <rect x="10" y="40" width="10" height="10" fill="RoyalBlue" />
        <rect x="20" y="40" width="10" height="10" fill="SteelBlue" />
        <rect x="30" y="40" width="10" height="10" fill="SkyBlue" />
        <rect x="40" y="40" width="10" height="10" fill="SteelBlue" />
    </g>

    <g>
        <rect x="50" y="0" width="10" height="10" fill="SteelBlue" />
        <rect x="60" y="0" width="10" height="10" fill="SkyBlue" />
        <rect x="70" y="0" width="10" height="10" fill="RoyalBlue" />
        <rect x="80" y="0" width="10" height="10" fill="SteelBlue" />
        <rect x="90" y="0" width="10" height="10" fill="SkyBlue" />

        <rect x="50" y="10" width="10" height="10" fill="SteelBlue" />
        <rect x="60" y="10" width="10" height="10" fill="SkyBlue" />
        <rect x="70" y="10" width="10" height="10" fill="SteelBlue" />
        <rect x="80" y="10" width="10" height="10" fill="RoyalBlue" />
        <rect x="90" y="10" width="10" height="10" fill="SkyBlue" />

        <rect x="50" y="20" width="10" height="10" fill="RoyalBlue" />
        <rect x="60" y="20" width="10" height="10" fill="SteelBlue" />
        <rect x="70" y="20" width="10" height="10" fill="SteelBlue" />
        <rect x="80" y="20" width="10" height="10" fill="RoyalBlue" />
        <rect x="90" y="20" width="10" height="10" fill="SteelBlue" />

        <rect x="50" y="30" width="10" height="10" fill="SkyBlue" />
        <rect x="60" y="30" width="10" height="10" fill="RoyalBlue" />
        <rect x="70" y="30" width="10" height="10" fill="SkyBlue" />
        <rect x="80" y="30" width="10" height="10" fill="RoyalBlue" />
        <rect x="90" y="30" width="10" height="10" fill="SkyBlue" />

        <rect x="50" y="40" width="10" height="10" fill="SteelBlue" />
        <rect x="60" y="40" width="10" height="10" fill="RoyalBlue" />
        <rect x="70" y="40" width="10" height="10" fill="SteelBlue" />
        <rect x="80" y="40" width="10" height="10" fill="RoyalBlue" />
        <rect x="90" y="40" width="10" height="10" fill="SkyBlue" />
    </g>

    <g>
        <rect x="0" y="50" width="10" height="10" fill="RoyalBlue" />
        <rect x="10" y="50" width="10" height="10" fill="RoyalBlue" />
        <rect x="20" y="50" width="10" height="10" fill="SkyBlue" />
        <rect x="30" y="50" width="10" height="10" fill="SteelBlue" />
        <rect x="40" y="50" width="10" height="10" fill="RoyalBlue" />

        <rect x="0" y="60" width="10" height="10" fill="RoyalBlue" />
        <rect x="10" y="60" width="10" height="10" fill="SkyBlue" />
        <rect x="20" y="60" width="10" height="10" fill="SteelBlue" />
        <rect x="30" y="60" width="10" height="10" fill="SteelBlue" />
        <rect x="40" y="60" width="10" height="10" fill="RoyalBlue" />

        <rect x="0" y="70" width="10" height="10" fill="RoyalBlue" />
        <rect x="10" y="70" width="10" height="10" fill="SkyBlue" />
        <rect x="20" y="70" width="10" height="10" fill="SteelBlue" />
        <rect x="30" y="70" width="10" height="10" fill="SkyBlue" />
        <rect x="40" y="70" width="10" height="10" fill="SteelBlue" />

        <rect x="0" y="80" width="10" height="10" fill="RoyalBlue" />
        <rect x="10" y="80" width="10" height="10" fill="SkyBlue" />
        <rect x="20" y="80" width="10" height="10" fill="SkyBlue" />
        <rect x="30" y="80" width="10" height="10" fill="SteelBlue" />
        <rect x="40" y="80" width="10" height="10" fill="SkyBlue" />

        <rect x="0" y="90" width="10" height="10" fill="RoyalBlue" />
        <rect x="10" y="90" width="10" height="10" fill="RoyalBlue" />
        <rect x="20" y="90" width="10" height="10" fill="SteelBlue" />
        <rect x="30" y="90" width="10" height="10" fill="SteelBlue" />
        <rect x="40" y="90" width="10" height="10" fill="SteelBlue" />
    </g>

    <g>
        <rect x="50" y="50" width="10" height="10" fill="SkyBlue" />
        <rect x="60" y="50" width="10" height="10" fill="RoyalBlue" />
        <rect x="70" y="50" width="10" height="10" fill="RoyalBlue" />
        <rect x="80" y="50" width="10" height="10" fill="SteelBlue" />
        <rect x="90" y="50" width="10" height="10" fill="SkyBlue" />

        <rect x="50" y="60" width="10" height="10" fill="RoyalBlue" />
        <rect x="60" y="60" width="10" height="10" fill="SkyBlue" />
        <rect x="70" y="60" width="10" height="10" fill="SteelBlue" />
        <rect x="80" y="60" width="10" height="10" fill="RoyalBlue" />
        <rect x="90" y="60" width="10" height="10" fill="RoyalBlue" />

        <rect x="50" y="70" width="10" height="10" fill="RoyalBlue" />
        <rect x="60" y="70" width="10" height="10" fill="SteelBlue" />
        <rect x="70" y="70" width="10" height="10" fill="SkyBlue" />
        <rect x="80" y="70" width="10" height="10" fill="RoyalBlue" />
        <rect x="90" y="70" width="10" height="10" fill="SteelBlue" />

        <rect x="50" y="80" width="10" height="10" fill="RoyalBlue" />
        <rect x="60" y="80" width="10" height="10" fill="RoyalBlue" />
        <rect x="70" y="80" width="10" height="10" fill="SkyBlue" />
        <rect x="80" y="80" width="10" height="10" fill="SkyBlue" />
        <rect x="90" y="80" width="10" height="10" fill="SkyBlue" />

        <rect x="50" y="90" width="10" height="10" fill="SkyBlue" />
        <rect x="60" y="90" width="10" height="10" fill="RoyalBlue" />
        <rect x="70" y="90" width="10" height="10" fill="SteelBlue" />
        <rect x="80" y="90" width="10" height="10" fill="SkyBlue" />
        <rect x="90" y="90" width="10" height="10" fill="RoyalBlue" />
    </g>

</svg>
