<svg version="1.1"
     width="20000" height="20000"
     xmlns="http://www.w3.org/2000/svg">

    <!-- Grid - Axis X (mrizka - osa x) -->
    <g>
        <line x1="0" y1="0" x2="0" y2="20000" stroke="silver" stroke-width="1" />
        <line x1="50" y1="0" x2="50" y2="20000" stroke="silver" stroke-width="1" />
        <line x1="100" y1="0" x2="100" y2="20000" stroke="silver" stroke-width="1" />
        <line x1="150" y1="0" x2="150" y2="20000" stroke="silver" stroke-width="1" />
        <line x1="200" y1="0" x2="200" y2="20000" stroke="silver" stroke-width="1" />
        <line x1="250" y1="0" x2="250" y2="20000" stroke="silver" stroke-width="1" />
        <line x1="300" y1="0" x2="300" y2="20000" stroke="silver" stroke-width="1" />
        <line x1="350" y1="0" x2="350" y2="20000" stroke="silver" stroke-width="1" />
        <line x1="400" y1="0" x2="400" y2="20000" stroke="silver" stroke-width="1" />
        <line x1="450" y1="0" x2="450" y2="20000" stroke="silver" stroke-width="1" />
        <line x1="500" y1="0" x2="500" y2="20000" stroke="silver" stroke-width="1" />
        <line x1="550" y1="0" x2="550" y2="20000" stroke="silver" stroke-width="1" />
        <line x1="600" y1="0" x2="600" y2="20000" stroke="silver" stroke-width="1" />
        <line x1="650" y1="0" x2="650" y2="20000" stroke="silver" stroke-width="1" />
        <line x1="700" y1="0" x2="700" y2="20000" stroke="silver" stroke-width="1" />
        <line x1="750" y1="0" x2="750" y2="20000" stroke="silver" stroke-width="1" />
        <line x1="800" y1="0" x2="800" y2="20000" stroke="silver" stroke-width="1" />
        <line x1="850" y1="0" x2="850" y2="20000" stroke="silver" stroke-width="1" />
        <line x1="900" y1="0" x2="900" y2="20000" stroke="silver" stroke-width="1" />
        <line x1="950" y1="0" x2="950" y2="20000" stroke="silver"  stroke-width="1" />
        <line x1="1000" y1="0" x2="1000" y2="20000" stroke="silver" stroke-width="1" />
        <line x1="1050" y1="0" x2="1050" y2="20000" stroke="silver" stroke-width="1" />
        <line x1="1100" y1="0" x2="1100" y2="20000" stroke="silver" stroke-width="1" />
        <line x1="1150" y1="0" x2="1150" y2="20000" stroke="silver" stroke-width="1" />
        <line x1="1200" y1="0" x2="1200" y2="20000" stroke="silver" stroke-width="1" />
        <line x1="1250" y1="0" x2="1250" y2="20000" stroke="silver" stroke-width="1" />
        <line x1="1300" y1="0" x2="1300" y2="20000" stroke="silver" stroke-width="1" />
        <line x1="1350" y1="0" x2="1350" y2="20000" stroke="silver" stroke-width="1" />
        <line x1="1400" y1="0" x2="1400" y2="20000" stroke="silver" stroke-width="1" />
        <line x1="1450" y1="0" x2="1450" y2="20000" stroke="silver" stroke-width="1" />
        <line x1="1500" y1="0" x2="1500" y2="20000" stroke="silver" stroke-width="1" />
        <line x1="1550" y1="0" x2="1550" y2="20000" stroke="silver" stroke-width="1" />
        <line x1="1600" y1="0" x2="1600" y2="20000" stroke="silver" stroke-width="1" />
        <line x1="1650" y1="0" x2="1650" y2="20000" stroke="silver" stroke-width="1" />
        <line x1="1700" y1="0" x2="1700" y2="20000" stroke="silver" stroke-width="1" />
        <line x1="1750" y1="0" x2="1750" y2="20000" stroke="silver" stroke-width="1" />
        <line x1="1800" y1="0" x2="1800" y2="20000" stroke="silver" stroke-width="1" />
        <line x1="1850" y1="0" x2="1850" y2="20000" stroke="silver" stroke-width="1" />
        <line x1="1900" y1="0" x2="1900" y2="20000" stroke="silver" stroke-width="1" />
        <line x1="1950" y1="0" x2="1950" y2="20000" stroke="silver"  stroke-width="1" />
        <line x1="2000" y1="0" x2="2000" y2="20000" stroke="silver" stroke-width="1" />
    </g>

    <!-- Grid - Axis Y (mrizka - osa y) -->
    <g>
        <line x1="0" y1="0" x2="20000" y2="0" stroke="silver" stroke-width="1" />
        <line x1="0" y1="50" x2="20000" y2="50" stroke="silver" stroke-width="1" />
        <line x1="0" y1="100" x2="20000" y2="100" stroke="silver" stroke-width="1" />
        <line x1="0" y1="150" x2="20000" y2="150" stroke="silver" stroke-width="1" />
        <line x1="0" y1="200" x2="20000" y2="200" stroke="silver" stroke-width="1" />
        <line x1="0" y1="250" x2="20000" y2="250" stroke="silver" stroke-width="1" />
        <line x1="0" y1="300" x2="20000" y2="300" stroke="silver" stroke-width="1" />
        <line x1="0" y1="350" x2="20000" y2="350" stroke="silver" stroke-width="1" />
        <line x1="0" y1="400" x2="20000" y2="400" stroke="silver" stroke-width="1" />
        <line x1="0" y1="450" x2="20000" y2="450" stroke="silver" stroke-width="1" />
        <line x1="0" y1="500" x2="20000" y2="500" stroke="silver" stroke-width="1" />
        <line x1="0" y1="550" x2="20000" y2="550" stroke="silver" stroke-width="1" />
        <line x1="0" y1="600" x2="20000" y2="600" stroke="silver" stroke-width="1" />
        <line x1="0" y1="650" x2="20000" y2="650" stroke="silver" stroke-width="1" />
        <line x1="0" y1="700" x2="20000" y2="700" stroke="silver" stroke-width="1" />
        <line x1="0" y1="750" x2="20000" y2="750" stroke="silver" stroke-width="1" />
        <line x1="0" y1="800" x2="20000" y2="800" stroke="silver" stroke-width="1" />
        <line x1="0" y1="850" x2="20000" y2="850" stroke="silver" stroke-width="1" />
        <line x1="0" y1="900" x2="20000" y2="900" stroke="silver" stroke-width="1" />
        <line x1="0" y1="950" x2="20000" y2="950" stroke="silver" stroke-width="1" />
        <line x1="0" y1="1000" x2="20000" y2="1000" stroke="silver" stroke-width="1" />
    </g>

</svg>
