<?xml version="1.0" encoding="utf-8"?>
<!-- Generator: Adobe Illustrator 16.0.0, SVG Export Plug-In . SVG Version: 6.00 Build 0)  -->
<!DOCTYPE svg PUBLIC "-//W3C//DTD SVG 1.1//EN" "http://www.w3.org/Graphics/SVG/1.1/DTD/svg11.dtd">
<svg version="1.1" id="Layer_1" xmlns="http://www.w3.org/2000/svg" xmlns:xlink="http://www.w3.org/1999/xlink" x="0px" y="0px"
	 width="864px" height="864px" viewBox="0 0 864 864" enable-background="new 0 0 864 864" xml:space="preserve">
<path fill-rule="evenodd" clip-rule="evenodd" d="M516.518,29.217c5.079,0.268,10.157,0.565,15.237,0.796
	c8.492,0.386,11.113,2.773,10.912,11.405c-0.345,14.8-0.954,29.598-1.766,44.38c-0.798,14.536-1.985,29.05-3.009,43.683
	c3.765,0,7.707,0.039,11.648-0.013c3.029-0.04,6.058-0.18,9.086-0.3c2.441-0.097,3.475,1.017,3.517,3.489
	c0.155,8.98,0.671,17.961,0.601,26.938c-0.103,13.108-0.596,26.214-0.915,39.322c-0.028,1.203-0.003,2.408-0.003,4.118
	c1.434-0.713,2.596-1.257,3.726-1.859c14.679-7.815,29.458-15.417,45.614-19.802c2.784-0.755,5.721-1.248,8.598-1.306
	c8.408-0.169,12.736,5.536,9.735,13.462c-1.775,4.687-4.446,9.196-7.471,13.217c-10.117,13.446-22.718,24.211-37.089,32.925
	c-1.121,0.679-2.229,1.38-3.656,2.266c0.992,0.873,1.782,1.542,2.545,2.24c6.798,6.233,13.655,12.405,20.34,18.757
	c1.672,1.587,3.021,1.983,5.099,0.981c5.021-2.421,10.175-4.569,15.144-7.087c0.865-0.438,1.646-2.209,1.521-3.252
	c-1.058-8.84-1.84-17.675,1.014-26.307c0.797-2.412,2.084-5.04,3.938-6.666c15.253-13.375,33.052-21.473,53.09-24.47
	c17.572-2.628,34.832-1.249,51.554,5.038c29.967,11.267,40.291,37.966,38.605,59.777c-1.814,23.487-11.732,43.671-28.763,60
	c-13.251,12.705-28.674,22.311-45.414,29.839c-4.102,1.845-7.792,2.193-11.483-0.902c-5.376-4.507-10.886-8.855-16.672-13.54
	c-3.319,2.062-7.074,4.246-10.621,6.727c-0.679,0.475-1.033,2.312-0.697,3.204c5.87,15.607,9.962,31.665,12.341,48.155
	c2.382,16.518,3.144,33.128,1.188,49.712c-1.814,15.393-4.353,30.698-6.388,46.066c-0.186,1.4,0.616,3.26,1.556,4.428
	c11.565,14.383,21.464,29.697,26.721,47.596c4.479,15.256,3.044,29.976-4.427,44.068c-8.361,15.772-20.629,28.137-34.529,38.936
	c-4.32,3.357-6.21,6.604-6.258,12.451c-0.337,40.328-10.663,78.368-28.144,114.505c-17.549,36.28-47.046,58.814-84.437,71.866
	c-26.753,9.34-54.395,13.146-82.661,12.362c-6.037-0.167-12.04-1.368-18.074-1.919c-2.843-0.259-5.797-0.542-8.573-0.068
	c-16.784,2.863-33.573,2.561-50.424,0.754c-19.258-2.065-37.989-6.179-56.166-13c-41.36-15.519-70.007-43.758-86.172-84.865
	c-9.083-23.099-16.342-46.691-19.377-71.361c-1.344-10.923-1.274-22.016-2.056-33.017c-0.108-1.528-1.058-3.439-2.245-4.38
	c-11.272-8.919-21.814-18.518-30.621-29.982c-16.426-21.386-19.049-44.205-7.725-68.665c5.897-12.735,13.377-24.449,22.256-35.316
	c1.034-1.265,1.631-3.496,1.375-5.112c-3.357-21.187-7.298-42.315-7.255-63.866c0.053-26.679,4.625-52.608,14.124-77.572
	c1.264-3.322,0.849-4.937-2.303-6.469c-3.037-1.477-5.796-3.526-8.928-5.479c-2.113,1.96-4.127,4.033-6.351,5.847
	c-3.659,2.984-7.485,5.761-11.181,8.7c-2.581,2.052-5.324,2.165-8.196,0.896c-22.479-9.927-43.016-22.64-57.992-42.629
	c-10.916-14.571-17.536-31.121-18.36-49.412c-1.329-29.507,16.924-53.334,47.018-61.004c33.108-8.438,63.548-2.105,91.462,17.713
	c7.879,5.594,10.513,12.949,10.676,21.75c0.096,5.191-0.685,10.394-0.837,15.597c-0.032,1.104,0.66,2.828,1.523,3.262
	c5.084,2.557,10.261,4.961,15.546,7.068c1.176,0.468,3.359,0.033,4.317-0.83c7.656-6.901,15.128-14.006,22.943-21.316
	c-0.866-0.545-1.926-1.239-3.011-1.892c-14.512-8.729-27.196-19.573-37.411-33.102c-2.962-3.924-5.6-8.304-7.374-12.868
	c-3.211-8.263,1.224-14.449,9.987-13.716c5.714,0.478,11.607,1.771,16.879,3.986c12.392,5.206,24.461,11.18,36.655,16.855
	c1.192,0.555,2.346,1.192,4.04,2.059c0-1.772,0.012-3.143-0.002-4.513c-0.202-20.148-0.531-40.295-0.56-60.443
	c-0.013-9.484,0.347-9.557,9.961-8.942c4.479,0.287,8.963,0.499,13.446,0.723c0.337,0.017,0.684-0.14,1.301-0.277
	c-0.564-6.628-1.263-13.218-1.662-19.826c-0.987-16.357-1.864-32.722-2.728-49.086c-0.307-5.815-0.494-11.638-0.635-17.459
	c-0.047-1.93,0.015-3.908,0.384-5.794c1.025-5.245,3.053-7.008,8.394-7.313c4.605-0.264,9.223-0.308,13.833-0.497
	c1.201-0.049,2.395-0.278,3.592-0.424c8.257,0,16.515,0,24.772,0c0.832,0.132,1.664,0.378,2.497,0.378
	c37.681,0.019,75.36,0.019,113.041,0c0.832,0,1.664-0.247,2.496-0.378C500.003,29.217,508.261,29.217,516.518,29.217z"/>
<g>
	<path fill-rule="evenodd" clip-rule="evenodd" fill="#392726" d="M314.338,139.162c78.919,5.097,157.909,5.083,237.3-0.025
		c-1.357,27.71-3.308,55.144-1.786,83.292c-78.02,18.288-156.026,18.232-233.302,0.244
		C315.805,194.529,315.077,167.067,314.338,139.162z"/>
	<path fill-rule="evenodd" clip-rule="evenodd" fill="#392726" d="M333.25,40.91c66.515,0,132.504,0,198.947,0
		c-2.15,29.748-4.296,59.448-6.473,89.57c-62.111,2.821-123.667,2.824-185.985,0.007C337.57,100.544,335.419,70.845,333.25,40.91z"
		/>
	<path fill-rule="evenodd" clip-rule="evenodd" fill="#392726" d="M615.97,202.195c-5.071,5.068-9.853,10.473-15.267,15.144
		c-19.56,16.88-42.812,26.327-67.524,32.579c-26.2,6.629-52.886,9.809-79.855,11.022c-27.963,1.258-55.811,0.073-83.516-3.778
		c-26.268-3.651-52.037-9.335-76.104-20.996c-16.009-7.756-30.22-17.953-41.744-31.654c-0.74-0.879-1.376-1.847-1.622-3.251
		c1.724,1.204,3.415,2.458,5.177,3.603c15.412,10.013,32.422,16.423,49.875,21.697c26.583,8.034,53.874,12.372,81.487,14.78
		c28.11,2.451,56.291,2.544,84.388,0.544c40.089-2.853,79.559-9.319,116.714-25.592c9.046-3.962,17.38-9.546,26.042-14.384
		c0.373-0.208,0.748-0.41,1.122-0.614C615.418,201.595,615.693,201.895,615.97,202.195z"/>
	<path fill-rule="evenodd" clip-rule="evenodd" fill="#392726" d="M622.23,189.87c-1.183,1.201-2.221,2.604-3.57,3.571
		c-12.642,9.057-26.978,14.668-41.391,20.082c-5.074,1.906-10.254,3.53-15.385,5.283c-0.315-0.258-0.631-0.516-0.946-0.773
		c0.763-1.378,1.172-3.379,2.341-4.042c15.801-8.969,31.766-17.647,49.05-23.511c2.95-1.001,6.125-1.342,9.196-1.987
		C621.76,188.952,621.995,189.411,622.23,189.87z"/>
	<path fill-rule="evenodd" clip-rule="evenodd" fill="#392726" d="M303.432,219.144c-10.478-4.018-21.156-7.593-31.373-12.19
		c-8.795-3.958-17.096-9.028-25.537-13.746c-1.312-0.733-2.208-2.21-3.295-3.343c0.182-0.341,0.363-0.682,0.544-1.022
		c1.6,0.126,3.326-0.093,4.777,0.437c8.058,2.942,16.25,5.633,24.013,9.236c9.763,4.531,19.199,9.78,28.665,14.925
		c1.47,0.799,2.347,2.69,3.499,4.076C304.294,218.059,303.863,218.602,303.432,219.144z"/>
	<path fill-rule="evenodd" clip-rule="evenodd" fill="#392726" d="M483.826,563.947c-5.312,10.721-24.617,18.376-36.198,17.43
		c12.256-6.302,23.963-12.32,35.669-18.34C483.473,563.341,483.649,563.645,483.826,563.947z"/>
	<path fill-rule="evenodd" clip-rule="evenodd" fill="#392726" d="M406.561,550.742c5.239,1.18,10.095,2.027,14.79,3.421
		c2.899,0.861,4.959,3.076,5.194,6.37c0.236,3.304-1.592,5.471-4.265,7.033c-10.504,6.143-21.815,8.335-33.826,6.555
		c-5.371-0.797-8.782-4.102-9.248-8.347c-0.525-4.792,1.985-9.066,7.418-10.646C393.177,553.225,399.97,552.152,406.561,550.742z"/>
</g>
<g>
	<path fill-rule="evenodd" clip-rule="evenodd" fill="#7C5F53" d="M625.504,631.221c-0.37-6.725-0.262-12.792-1.107-18.724
		c-3.357-23.583-16.271-40.311-37.523-50.661c-13.658-6.653-28.411-9.747-43.257-12.177c-16.639-2.725-33.412-6.033-50.271-4.422
		c-11.407,1.09-21.743-2.515-32.561-3.958c-25.157-3.355-50.08-2.767-74.697,3.945c-1.376,0.376-2.894,0.737-4.267,0.547
		c-17.443-2.427-34.639,0.196-51.81,2.62c-15.856,2.238-31.607,5.155-46.527,11.277c-24.617,10.102-39.302,28.138-42.767,54.713
		c-0.684,5.244-0.099,10.655-0.099,16.088c-0.689,0-1.088,0.125-1.324-0.018c-17.977-10.896-34.574-23.447-47.373-40.385
		c-6.229-8.243-10.742-17.287-11.531-27.848c-0.718-9.619,1.604-18.718,5.981-27.019c5.473-10.379,11.231-20.75,18.155-30.179
		c5.489-7.474,6.644-14.699,5.043-23.444c-3.559-19.436-6.664-38.949-6.265-58.84c0.703-35.107,9.173-68.107,26.668-98.627
		c16.548-28.87,38.656-53.102,63.463-75c0.881-0.778,2.969-1.058,4.075-0.585c27.743,11.844,56.954,17.373,86.748,20.559
		c27.972,2.991,55.993,3.369,84.001,1.199c34.23-2.651,67.914-8.138,99.782-21.811c1.04-0.446,2.996-0.256,3.798,0.457
		c28.436,25.262,53.507,53.263,70.316,87.82c10.172,20.911,15.937,43.078,18.78,66.134c2.887,23.404,0.352,46.456-3.383,69.495
		c-0.931,5.739-1.766,11.494-2.613,17.246c-0.58,3.936,0.674,7.289,2.866,10.587c6.043,9.087,12.309,18.074,17.597,27.596
		c3.61,6.5,6.339,13.656,8.38,20.828c3.516,12.355,0.698,24.017-5.857,34.855c-8.58,14.182-20.603,25.082-33.705,34.869
		C638.244,622.824,631.926,626.83,625.504,631.221z M580,488.258c-0.888-7.811-1.126-14.162-2.404-20.297
		c-3.131-15.027-11.58-25.615-26.736-30.177c-13.874-4.177-27.905-5.116-42.039-1.81c-14.787,3.458-26.255,11.501-32.068,25.919
		c-6.095,15.12-8.023,30.851-5.606,47.116c1.355,9.124,5.761,16.114,13.158,21.312c2.767,1.942,5.707,3.725,8.771,5.144
		c15.842,7.336,32.51,9.42,49.743,7.28c17.537-2.177,29.174-11.291,32.873-29.029C577.54,504.849,578.735,495.845,580,488.258z
		 M341.209,434.033c-10.862-0.074-19.729,1.672-28.426,4.553c-12.118,4.012-20.103,12.302-23.536,24.327
		c-5.641,19.76-3.958,39.385,3.079,58.559c3.526,9.608,10.295,16.093,20.258,18.778c4.893,1.318,9.912,2.54,14.94,2.916
		c18.328,1.373,35.816-1.666,51.664-11.491c7.719-4.785,13.186-11.403,14.778-20.663c2.91-16.922,1.102-33.334-5.406-49.224
		c-4.09-9.985-11.052-17.158-20.794-21.854C358.802,435.613,349.311,434.24,341.209,434.033z M415.285,462.281
		c0.458-0.181,0.917-0.361,1.375-0.542c-0.779-4.48-1.139-9.084-2.413-13.418c-4.217-14.347-11.954-27.006-19.804-39.557
		c-16.244-25.971-39.686-36.91-70.086-33.598c-27.792,3.028-47.373,17.206-58.701,42.66c-2.97,6.674-2.792,14.009-3.048,21.46
		c4.934-2.451,9.613-4.983,13.926-8.032c10.672-7.543,22.449-11.446,35.485-10.856c9.069,0.41,18.145,1.178,27.154,2.303
		c19.9,2.483,38.553,8.447,54.786,20.741C401.539,449.182,409.883,454.018,415.285,462.281z M602.718,439.455
		c0.346-0.198,0.691-0.397,1.036-0.597c-1.134-6.629-1.235-13.662-3.626-19.803c-4.479-11.506-11.518-21.63-21.31-29.47
		c-11.272-9.025-24.568-12.931-38.646-14.455c-27.515-2.978-50.058,5.989-65.91,29.058c-6.706,9.759-12.408,20.275-17.822,30.828
		c-3.007,5.861-4.676,12.451-6.553,18.828c-0.755,2.566-0.451,5.443-0.63,8.179c2.563-1.858,3.854-4.163,5.743-5.756
		c12.647-10.662,25.771-20.647,41.486-26.5c14.213-5.293,29.118-7.143,44.076-8.869c18.785-2.167,36.23,0.434,51.562,12.513
		C595.283,435.899,599.168,437.464,602.718,439.455z"/>
	<path fill-rule="evenodd" clip-rule="evenodd" fill="#7C5F53" d="M163.248,204.671c23.862-0.117,43.149,7.034,61.001,19.563
		c8.25,5.791,7.283,12.896,6.356,20.81c-3.51,29.986-18.37,54.319-37.999,76.215c-6.152,6.864-12.795,13.292-19.326,19.807
		c-0.742,0.74-2.523,1.383-3.302,1.003c-20.322-9.913-39.78-21.185-53.239-40.051c-10.358-14.52-16.551-30.6-15.653-48.931
		c0.944-19.292,13.339-35.921,32.764-43.173C143.958,206.143,154.449,204.512,163.248,204.671z M157.326,215.305
		c-2.878,0.159-5.922,0.194-8.931,0.535c-2.641,0.299-5.267,0.842-7.858,1.45c-23.059,5.414-42.137,28.264-28.23,57.605
		c6.229,13.144,15.084,24.28,25.985,33.815c8.194,7.167,17.191,13.1,27.655,16.4c2.158,0.681,5.225,1.149,6.914,0.128
		c4.207-2.544,8.254-5.623,11.663-9.164c10.494-10.902,19.097-23.208,25.785-36.819c5.697-11.594,8.435-23.975,9.455-36.741
		c0.131-1.64-1.448-3.617-2.65-5.1c-0.946-1.168-2.55-1.793-3.833-2.701C196.544,222.878,178.238,215.572,157.326,215.305z"/>
	<path fill-rule="evenodd" clip-rule="evenodd" fill="#7C5F53" d="M764.42,262.316c-1.416,18.792-11.128,38.411-28.644,54.06
		C724.03,326.869,710.65,335,696.405,341.67c-1.038,0.486-3.057,0.505-3.762-0.164c-15.73-14.899-30.408-30.697-41.562-49.461
		c-10.563-17.77-16.239-36.961-17.146-57.597c-0.16-3.676,2.266-5.785,4.653-7.772c12.155-10.116,25.983-16.921,41.499-20.014
		c17.453-3.479,34.767-2.935,51.592,3.295C752.645,217.72,764.573,235.223,764.42,262.316z M706.639,215.343
		c-1.93,0.13-5.464,0.179-8.945,0.632c-18.799,2.448-35.063,10.822-50.083,21.897c-1.201,0.886-2.02,3.186-1.925,4.763
		c0.264,4.337,0.914,8.678,1.754,12.95c4.963,25.236,18.777,45.431,36.431,63.379c1.598,1.624,3.838,2.614,5.44,4.233
		c4.006,4.047,8.35,3.022,12.737,1.111c25.145-10.955,43.044-29.244,53.056-54.635c8.691-22.042-3.206-40.411-20.383-48.894
		C726.393,216.668,717.403,215.464,706.639,215.343z"/>
	<path fill-rule="evenodd" clip-rule="evenodd" fill="#7C5F53" d="M614.487,273.763c4.887-2.432,9.408-4.681,14.337-7.133
		c6.799,23.573,20.027,43.249,36.228,61.558c-1.775,1.104-3.267,2.047-4.773,2.966c-1.538,0.938-3.091,1.852-5.015,3.001
		C644.901,311.746,630.857,292.108,614.487,273.763z"/>
	<path fill-rule="evenodd" clip-rule="evenodd" fill="#7C5F53" d="M210.24,334.192c-3.523-2.111-6.519-3.906-9.866-5.911
		c16.057-18.278,29.422-37.879,36.228-61.634c4.824,2.379,9.339,4.606,14.331,7.069C234.764,292.083,220.538,311.57,210.24,334.192z
		"/>
	<path fill-rule="evenodd" clip-rule="evenodd" fill="#7C5F53" d="M555.371,488.445c-22.576-6.924-44.582-8.339-67.381-0.659
		c1.669-11.174,3.511-22.025,13.537-28.054c13.421-8.07,27.978-9.682,41.65-0.81C553.43,465.575,554.546,476.939,555.371,488.445z"
		/>
	<path fill-rule="evenodd" clip-rule="evenodd" fill="#7C5F53" d="M377.435,487.754c-22.75-7.604-44.744-6.231-66.672,0.394
		c-3.537-17.133,9.734-33.775,27.847-34.672c10.856-0.538,21.147,1.591,29.188,9.479C374.45,469.48,376.12,478.241,377.435,487.754z
		"/>
</g>
<g>
	<path fill-rule="evenodd" clip-rule="evenodd" fill="#FFFFFF" d="M441.913,769.533c0.638-4.214,1.234-7.515,1.615-10.84
		c0.566-4.93,1.127-9.869,1.398-14.821c0.153-2.804,1.291-4.211,4.032-4.592c10.619-1.473,21.036-0.263,31.282,2.53
		c1.074,0.292,2.436,2.233,2.414,3.386c-0.123,6.293-0.527,12.589-1.146,18.854c-0.082,0.832-1.872,2.038-2.965,2.147
		C466.628,767.391,454.691,768.399,441.913,769.533z"/>
	<path fill-rule="evenodd" clip-rule="evenodd" fill="#FFFFFF" d="M423.295,769.528c-12.646-1.151-24.805-2.205-36.941-3.469
		c-0.941-0.098-2.38-1.609-2.479-2.578c-0.589-5.782-0.829-11.599-1.234-17.4c-0.195-2.786,1.029-4.501,3.778-4.767
		c9.133-0.882,18.265-2.023,27.422-2.327c5.732-0.19,6.127,0.779,6.77,6.545C421.467,753.213,422.329,760.893,423.295,769.528z"/>
	<path fill-rule="evenodd" clip-rule="evenodd" fill="#FFFFFF" d="M500.581,763.231c0-5.919-0.225-10.884,0.073-15.817
		c0.225-3.706,2.317-6.641,6.18-7.101c8.636-1.028,17.312-1.753,25.984-2.427c3.006-0.232,4.474,1.517,5.043,4.538
		c1.801,9.561,1.945,9.73-7.33,12.517C520.8,757.864,510.946,760.382,500.581,763.231z"/>
	<path fill-rule="evenodd" clip-rule="evenodd" fill="#FFFFFF" d="M364.762,763.487c-12.415-3.681-24.473-7.228-36.498-10.888
		c-0.689-0.209-1.613-1.362-1.562-2.007c0.261-3.257,0.514-6.576,1.404-9.693c0.348-1.218,2.293-2.692,3.617-2.806
		c9.364-0.801,18.653-0.023,27.751,2.409c3.139,0.839,5.038,3.235,5.21,6.348C364.97,752.018,364.762,757.211,364.762,763.487z"/>
	<path fill-rule="evenodd" clip-rule="evenodd" fill="#FFFFFF" d="M310.57,745.369c-6.481-4.564-12.854-9.294-19.468-13.656
		c-9.15-6.035-10.621-15.566-12.314-25.689c1.07,0.584,1.742,0.93,2.394,1.31c7.306,4.261,14.679,8.414,21.867,12.865
		c1.919,1.188,4.123,3.035,4.725,5.024c1.876,6.197,3.047,12.607,4.491,18.935C311.7,744.562,311.135,744.965,310.57,745.369z"/>
	<path fill-rule="evenodd" clip-rule="evenodd" fill="#FFFFFF" d="M553.793,745.737c0.653-8.7,1.247-16.121,4.977-22.849
		c0.536-0.969,1.663-1.729,2.68-2.292c8.237-4.563,16.512-9.057,24.847-13.61c-0.002-0.026,0.106,0.673,0.09,1.369
		c-0.012,0.475-0.258,0.939-0.3,1.418c-1.001,11.371-6.904,19.583-16.35,25.572C564.672,738.557,559.687,741.891,553.793,745.737z"
		/>
	<path fill-rule="evenodd" clip-rule="evenodd" fill="#FFFFFF" d="M271.884,711.062c-4.701-8.924-9.401-17.848-14.103-26.771
		c0.277-0.192,0.553-0.385,0.829-0.577c0.875,1.124,1.751,2.245,2.623,3.371c0.888,1.148,1.751,2.317,2.662,3.447
		s1.691,2.47,2.835,3.291c5.894,4.226,6.15,10.466,6.259,16.798C272.621,710.768,272.252,710.915,271.884,711.062z"/>
	<path fill-rule="evenodd" clip-rule="evenodd" fill="#FFFFFF" d="M592.444,710.615c0.239-6.113,0.417-12.006,5.919-16.552
		c3.37-2.785,5.705-6.821,8.505-10.296c0.264,0.138,0.527,0.276,0.792,0.415c-4.675,8.956-9.349,17.911-14.022,26.867
		C593.24,710.904,592.842,710.76,592.444,710.615z"/>
	<path fill-rule="evenodd" clip-rule="evenodd" fill="#FFFFFF" d="M496.758,489.705c-2.604,11.292-0.086,18.349,8.212,23.685
		c8.597,5.528,19.825,5.505,27.401-0.056c7.604-5.581,9.293-12.591,5.617-24.935c5.396,1.106,10.473,2.072,15.491,3.27
		c0.634,0.15,1.488,1.591,1.382,2.305c-2.693,18.024-11.628,28.861-29.556,30.699c-11.912,1.221-22.918-3.175-31.982-11.356
		c-6.327-5.712-5.766-13.471-5.663-20.992c0.008-0.574,0.926-1.516,1.546-1.634C491.652,490.227,494.148,490.022,496.758,489.705z"
		/>
	<path fill-rule="evenodd" clip-rule="evenodd" fill="#FFFFFF" d="M310.267,491.741c5.91-1.118,11.413-2.159,17.29-3.271
		c-3.883,11.325-2.362,18.474,4.753,24.264c7.306,5.946,18.404,6.412,27.331,1.149c8.796-5.186,11.435-12.007,9.16-24.18
		c2.47,0.296,4.892,0.387,7.189,0.971c0.81,0.206,1.774,1.564,1.886,2.491c1.497,12.367-2.858,20.793-14.14,25.962
		c-5.336,2.444-11.092,4.413-16.862,5.384c-13.387,2.254-31.853-5.152-35.795-27.419
		C310.807,495.56,310.609,494.013,310.267,491.741z"/>
</g>
<g>
	<path fill-rule="evenodd" clip-rule="evenodd" fill="#4899C3" d="M518.895,488.003c3.146,0,6.296-0.087,9.438,0.021
		c4.656,0.158,6.973,2.221,7.911,6.815c2.117,10.366-6.826,19.568-18.355,18.887c-8.72-0.517-16.562-6.137-18.323-13.529
		c-0.506-2.119-0.255-4.543,0.167-6.727c0.575-2.973,2.333-4.822,5.757-4.898c4.471-0.101,8.934-0.568,13.399-0.879
		C518.891,487.796,518.893,487.899,518.895,488.003z M517.217,506.436c4.628-0.022,8.11-3.456,8.058-7.945
		c-0.056-4.693-3.738-8.443-8.193-8.342c-4.376,0.099-8.586,4.442-8.482,8.755C508.699,503.104,512.534,506.458,517.217,506.436z"/>
	<path fill-rule="evenodd" clip-rule="evenodd" fill="#4899C3" d="M346.875,487.673c4.704,0.363,9.439,0.52,14.095,1.209
		c1.482,0.22,3.246,1.565,4.031,2.897c2.444,4.146,1.709,8.395-0.652,12.39c-5.682,9.616-20.466,12.531-29.32,5.777
		c-4.231-3.228-6.41-7.515-6.099-12.888c0.361-6.229,3.025-8.848,9.223-9.082c2.901-0.109,5.809-0.019,8.713-0.019
		C346.87,487.863,346.873,487.768,346.875,487.673z M348.198,506.436c4.682,0.041,8.527-3.286,8.658-7.49
		c0.134-4.301-4.064-8.678-8.438-8.797c-4.456-0.123-8.158,3.609-8.234,8.3C340.109,502.942,343.574,506.395,348.198,506.436z"/>
</g>
<g>
	<path fill-rule="evenodd" clip-rule="evenodd" fill="#E1B93C" d="M435.479,601.004c9.78-2.682,19.385-4.793,28.617-7.979
		c11.324-3.908,22.342-8.705,33.479-13.149c1.007-0.402,1.937-1.008,2.882-1.554c9.831-5.668,10.887-9.853,4.979-19.629
		c-0.17-0.279-0.206-0.639-0.457-1.463c5.535,0.565,10.799,1.033,16.043,1.651c16.742,1.976,33.382,4.517,49.524,9.588
		c17.21,5.408,30.868,15.065,38.125,32.234c4.889,11.567,5.078,23.661,3.188,35.771c-4.716,30.237-20.015,53.396-46.807,68.663
		c-13.78,7.852-28.676,10.008-43.968,7.068c-14.96-2.874-29.597-7.39-44.521-10.487c-9.44-1.959-19.128-2.797-28.739-3.827
		c-4.488-0.48-10.933-7.367-11.014-12.451c-0.44-27.656-0.888-55.312-1.332-82.969C435.473,601.994,435.479,601.515,435.479,601.004
		z"/>
	<path fill-rule="evenodd" clip-rule="evenodd" fill="#E1B93C" d="M360.709,557.302c-1.276,2.225-2.401,3.919-3.262,5.738
		c-2.209,4.673-1.583,8.57,2.492,11.698c3.244,2.49,6.84,4.655,10.551,6.379c18.098,8.406,36.866,14.863,56.486,18.715
		c0.933,0.183,1.839,0.501,3.154,0.866c-0.328,6.565-0.841,13.083-0.941,19.608c-0.322,20.878-0.556,41.759-0.686,62.639
		c-0.053,8.455-5.477,14.49-13.95,14.776c-16.063,0.544-31.205,5.469-46.588,9.391c-9.248,2.358-18.667,4.224-28.114,5.585
		c-20.034,2.884-37.365-3.896-52.587-16.414c-24.818-20.406-36.215-47.168-34.276-78.93c1.409-23.088,14.735-38.386,36.051-46.747
		c14.088-5.525,28.916-8.083,43.806-10.219c7.562-1.085,15.171-1.841,22.762-2.718C357.133,557.494,358.672,557.445,360.709,557.302
		z"/>
	<path fill-rule="evenodd" clip-rule="evenodd" fill="#E1B93C" d="M226.87,638.926c5.294,3.104,9.746,5.55,13.982,8.324
		c0.976,0.641,1.537,2.36,1.739,3.668c2.597,16.747,6.967,32.968,14.009,48.425c14.797,32.477,40.325,52.696,73.403,64.308
		c21.877,7.68,44.466,12.185,67.519,13.796c17.039,1.19,34.192,1.894,51.252,1.395c27.848-0.815,55.237-5.131,81.935-13.549
		c46.801-14.758,76.027-45.888,87.792-93.438c1.745-7.053,2.875-14.257,4.407-21.365c0.256-1.188,0.826-2.697,1.746-3.288
		c4.257-2.733,8.688-5.196,13.742-8.157c-0.361,5.858-0.521,11.122-1.038,16.349c-2.914,29.457-11.164,57.463-23.019,84.503
		c-17.398,39.688-48.686,62.754-89.236,74.688c-23.229,6.835-46.995,9.631-71.194,8.705c-0.606-0.023-1.219-0.021-1.817-0.106
		c-11.344-1.609-22.489-2.965-34.145-0.787c-13.748,2.567-27.826,1.143-41.715-0.526c-20.583-2.474-40.479-7.487-59.449-16.018
		c-31.607-14.211-53.787-37.441-67.17-69.343c-9.941-23.697-17.367-48.072-20.659-73.599
		C227.964,655.235,227.595,647.481,226.87,638.926z"/>
	<path fill-rule="evenodd" clip-rule="evenodd" fill="#E1B93C" d="M154.886,220.884c22.749,0.766,41.331,8.312,57.917,21.097
		c0.911,0.702,1.607,2.574,1.389,3.706c-1.509,7.825-2.483,15.885-5.138,23.331c-6.546,18.36-17.835,33.772-31.657,47.415
		c-3.772,3.723-7.292,4.575-12.487,2.182c-22.033-10.152-37.992-26.276-48.045-48.13c-11.369-24.716,4.831-44.356,25.916-48.088
		C147.303,221.596,151.907,221.247,154.886,220.884z"/>
	<path fill-rule="evenodd" clip-rule="evenodd" fill="#E1B93C" d="M650.838,245.036c0.633-0.91,1.349-2.717,2.674-3.722
		c15.229-11.555,32.236-18.726,51.432-20.155c8.807-0.656,17.489,0.379,25.763,3.502c17.432,6.579,26.092,24.143,19.358,41.712
		c-9.875,25.77-28.139,43.773-53.988,53.8c-1.016,0.394-2.588,0.038-3.635-0.493c-1.489-0.754-2.864-1.862-4.059-3.048
		c-17.346-17.239-30.85-36.754-35.918-61.195C651.826,252.356,651.482,249.215,650.838,245.036z"/>
</g>
</svg>
